<?xml version="1.0" encoding="UTF-8" standalone="no"?>
<!-- Created with Inkscape (http://www.inkscape.org/) -->

<svg
   xmlns:dc="http://purl.org/dc/elements/1.1/"
   xmlns:cc="http://creativecommons.org/ns#"
   xmlns:rdf="http://www.w3.org/1999/02/22-rdf-syntax-ns#"
   xmlns:svg="http://www.w3.org/2000/svg"
   xmlns="http://www.w3.org/2000/svg"
   xmlns:sodipodi="http://sodipodi.sourceforge.net/DTD/sodipodi-0.dtd"
   xmlns:inkscape="http://www.inkscape.org/namespaces/inkscape"
   width="190mm"
   height="190mm"
   viewBox="0 0 190 190"
   version="1.1"
   id="svg8"
   inkscape:version="0.92.4 (5da689c313, 2019-01-14)"
   sodipodi:docname="ThoughtBubbleRightKnight.svg">
  <defs
     id="defs2" />
  <sodipodi:namedview
     id="base"
     pagecolor="#ffffff"
     bordercolor="#666666"
     borderopacity="1.0"
     inkscape:pageopacity="0.0"
     inkscape:pageshadow="2"
     inkscape:zoom="0.70710678"
     inkscape:cx="255.73224"
     inkscape:cy="422.44356"
     inkscape:document-units="mm"
     inkscape:current-layer="layer1"
     showgrid="false"
     inkscape:window-width="1920"
     inkscape:window-height="1009"
     inkscape:window-x="-8"
     inkscape:window-y="303"
     inkscape:window-maximized="1" />
  <metadata
     id="metadata5">
    <rdf:RDF>
      <cc:Work
         rdf:about="">
        <dc:format>image/svg+xml</dc:format>
        <dc:type
           rdf:resource="http://purl.org/dc/dcmitype/StillImage" />
        <dc:title></dc:title>
      </cc:Work>
    </rdf:RDF>
  </metadata>
  <g
     inkscape:groupmode="layer"
     id="layer2"
     inkscape:label="Speech"
     style="display:none">
    <path
       style="display:inline;fill:#ffffff;fill-opacity:1;stroke:#000000;stroke-width:1;stroke-linecap:butt;stroke-linejoin:miter;stroke-miterlimit:4;stroke-dasharray:none;stroke-opacity:1"
       d="M 163.38224,136.2068 134.27807,93.344301 C 135.64448,80.722731 138.38158,8.8880489 72.630151,7.354716 -7.970939,6.167106 -2.8563787,142.93128 66.544731,145.73179 c 11.37496,0.9296 38.701519,0.4045 60.854169,-22.75416 z"
       id="path6137"
       inkscape:connector-curvature="0"
       sodipodi:nodetypes="cccccc" />
  </g>
  <g
     inkscape:groupmode="layer"
     id="layer1"
     inkscape:label="Thought"
     style="display:inline">
    <path
       style="fill:#ffffff;fill-opacity:1;stroke:#000000;stroke-width:1;stroke-linecap:butt;stroke-linejoin:miter;stroke-miterlimit:4;stroke-dasharray:none;stroke-opacity:1"
       d="m 22.555727,121.60521 c -0.12065,-1.05833 -3.73841,-4.43177 0.79375,-5.09323 0.83784,-4.20747 5.97517,-3.66172 7.67291,0.0662 7.58473,-2.99861 10.27465,3.10886 6.48229,5.68854 0,0 3.0708,3.049 -0.99218,7.14375 -1.71192,1.69853 -7.79706,4.82792 -8.46667,-0.79375 -0.84661,2.55129 -4.45884,1.55387 -7.9375,-1.19062 -1.18648,-1.65365 -0.0286,-6.21771 2.4474,-5.82084 z"
       id="path6103"
       inkscape:connector-curvature="0"
       sodipodi:nodetypes="cccccccc" />
    <path
       style="fill:#ffffff;fill-opacity:1;stroke:#000000;stroke-width:0.99999994;stroke-linecap:butt;stroke-linejoin:miter;stroke-miterlimit:4;stroke-dasharray:none;stroke-opacity:1"
       d="m 26.528987,92.193868 c -0.20951,-1.840545 -6.49182,-7.707303 1.37836,-8.85765 1.45493,-7.317215 10.37599,-6.3681 13.32415,0.115129 13.171,-5.214884 17.8421,5.406626 11.25661,9.892954 0,0 5.33249,5.302526 -1.72295,12.423719 -2.97277,2.95392 -13.53973,8.39625 -14.70251,-1.38041 -1.47015,4.43696 -7.74286,2.70234 -13.78361,-2.07061 -2.06034,-2.875873 -0.0497,-10.813243 4.24995,-10.123045 z"
       id="path6103-8"
       inkscape:connector-curvature="0"
       sodipodi:nodetypes="cccccccc" />
    <path
       style="fill:#ffffff;fill-opacity:1;stroke:#000000;stroke-width:1;stroke-linecap:butt;stroke-linejoin:miter;stroke-miterlimit:4;stroke-dasharray:none;stroke-opacity:1"
       d="m 73.867287,66.189723 c -0.68086,-8.082621 -21.09695,-33.846066 4.47937,-38.897732 4.72821,-32.1330249 33.719663,-27.96505473 43.300523,0.505581 42.80284,-22.9007899 57.98288,23.742809 36.58148,43.444195 0,0 17.3294,23.285663 -5.5992,54.557873 -9.66085,12.97193 -63.31568,38.98821 -67.094483,-3.9453 -14.83181,9.695 -22.19895,1.12329 -25.47907,-11.2096 -6.69565,-12.6292 -0.16161,-47.485589 13.81138,-44.454634 z"
       id="path6103-8-6"
       inkscape:connector-curvature="0"
       sodipodi:nodetypes="ccccccccc" />
    <path
       style="display:inline;fill:#282828;fill-opacity:1;stroke:none;stroke-width:0.26458332px;stroke-linecap:butt;stroke-linejoin:miter;stroke-opacity:1"
       d="M 130.29246,126.11054 H 98.542466 c -1.41374,-0.0296 -1.65648,-1.03953 -1.19063,-2.77813 6.693374,-29.987064 17.239284,-29.382353 18.506254,-46.698965 -0.63579,2.770201 -3.85566,3.545229 -5.82083,2.11667 -7.43814,4.72477 -4.93936,6.537851 -9.525,3.307291 -0.766224,-0.65043 -1.097574,-5.99722 -0.661464,-6.61458 11.995864,-14.480601 4.161754,-13.939421 13.716224,-24.833043 0.57237,-1.899228 -0.0399,-3.928118 -1.595,-5.296387 2.17424,0.458413 6.92268,2.383088 6.39961,5.126297 20.54963,8.598782 5.9237,33.373552 7.27605,56.356247 1.39073,7.51873 3.0905,12.76516 5.30624,16.80105 0.83238,1.49316 -0.11465,2.52589 -0.66146,2.51355 z"
       id="path3130"
       inkscape:connector-curvature="0"
       sodipodi:nodetypes="ccccccccccccc" />
  </g>
</svg>
