<?xml version="1.0" encoding="UTF-8" standalone="no"?>
<!-- Created with Inkscape (http://www.inkscape.org/) -->

<svg
   xmlns:dc="http://purl.org/dc/elements/1.1/"
   xmlns:cc="http://creativecommons.org/ns#"
   xmlns:rdf="http://www.w3.org/1999/02/22-rdf-syntax-ns#"
   xmlns:svg="http://www.w3.org/2000/svg"
   xmlns="http://www.w3.org/2000/svg"
   xmlns:sodipodi="http://sodipodi.sourceforge.net/DTD/sodipodi-0.dtd"
   xmlns:inkscape="http://www.inkscape.org/namespaces/inkscape"
   width="190mm"
   height="190mm"
   viewBox="0 0 190 190"
   version="1.1"
   id="svg8"
   inkscape:version="0.92.4 (5da689c313, 2019-01-14)"
   sodipodi:docname="BlackPawnFront.svg">
  <defs
     id="defs2" />
  <sodipodi:namedview
     id="base"
     pagecolor="#ffffff"
     bordercolor="#666666"
     borderopacity="1.0"
     inkscape:pageopacity="0.0"
     inkscape:pageshadow="2"
     inkscape:zoom="7.9195959"
     inkscape:cx="333.08868"
     inkscape:cy="385.36865"
     inkscape:document-units="mm"
     inkscape:current-layer="layer2"
     showgrid="false"
     inkscape:window-width="1920"
     inkscape:window-height="1009"
     inkscape:window-x="-8"
     inkscape:window-y="303"
     inkscape:window-maximized="1" />
  <metadata
     id="metadata5">
    <rdf:RDF>
      <cc:Work
         rdf:about="">
        <dc:format>image/svg+xml</dc:format>
        <dc:type
           rdf:resource="http://purl.org/dc/dcmitype/StillImage" />
        <dc:title></dc:title>
      </cc:Work>
    </rdf:RDF>
  </metadata>
  <g
     inkscape:groupmode="layer"
     id="layer2"
     inkscape:label="CloakFrontWhite"
     style="display:inline"
     transform="translate(0,-107)">
    <g
       id="g965"
       style="fill:#282828;fill-opacity:1"
       transform="translate(-10.882662,43.712375)">
      <path
         sodipodi:nodetypes="cccccccccc"
         inkscape:connector-curvature="0"
         id="path829"
         d="m 106.13324,72.22683 c -5.08061,0 -11.847072,4.506889 -12.010432,6.548099 -2.82601,19.75468 -4.63617,17.64569 -6.08038,25.791521 -0.27118,2.20282 -0.67707,4.04745 0.26727,6.08038 -4.416529,2.12471 -2.486444,2.74458 -8.61945,5.54584 l -3.74177,90.06983 c -0.94163,2.54276 -2.22692,4.93826 -4.40995,6.94901 v 11.49259 c -5.34836,7.81541 -13.246956,15.07119 -21.114289,19.64431 l 56.523341,1e-5"
         style="display:inline;fill:#282828;fill-opacity:1;stroke:#000000;stroke-width:4;stroke-linecap:round;stroke-linejoin:miter;stroke-miterlimit:4;stroke-dasharray:none;stroke-opacity:1" />
      <path
         sodipodi:nodetypes="cccccccccc"
         inkscape:connector-curvature="0"
         id="path829-8"
         d="m 105.88267,72.22683 c 5.38046,0 11.5965,4.50689 11.75986,6.5481 2.82601,19.754682 4.63617,17.64569 6.08038,25.79153 0.27118,2.20282 0.67707,4.04745 -0.26727,6.08037 4.41653,2.12471 2.48645,2.74459 8.61945,5.54585 l 3.74177,90.06983 c 0.94163,2.54276 2.22692,4.93826 4.40995,6.949 v 11.49259 c 5.34836,7.81541 13.24696,15.07119 21.11429,19.64432 h -55.4626"
         style="display:inline;fill:#282828;fill-opacity:1;stroke:#000000;stroke-width:4;stroke-linecap:round;stroke-linejoin:miter;stroke-miterlimit:4;stroke-dasharray:none;stroke-opacity:1" />
    </g>
    <path
       style="fill:none;stroke:#000000;stroke-width:3;stroke-linecap:round;stroke-linejoin:miter;stroke-miterlimit:4;stroke-dasharray:none;stroke-opacity:1"
       d="m 78.562931,155.56191 c 4.385568,10.14339 15.195987,12.84147 24.210779,18.37428"
       id="path878"
       inkscape:connector-curvature="0"
       sodipodi:nodetypes="cc" />
    <path
       style="fill:none;stroke:#000000;stroke-width:3;stroke-linecap:round;stroke-linejoin:miter;stroke-miterlimit:4;stroke-dasharray:none;stroke-opacity:1"
       d="m 111.23663,155.896 c -7.88105,29.24253 -28.625107,36.19536 -43.608869,55.05701"
       id="path880"
       inkscape:connector-curvature="0"
       sodipodi:nodetypes="cc" />
    <path
       style="fill:#000000;fill-opacity:1;stroke:#000000;stroke-width:3;stroke-linecap:round;stroke-linejoin:miter;stroke-miterlimit:4;stroke-dasharray:none;stroke-opacity:1"
       d="m 121.19243,159.90505 c -7.01216,53.8371 -27.895652,44.28272 -56.08267,82.05225 l 1.278973,7.78133 c 19.132301,-28.74374 49.340357,-37.32927 54.803697,-89.83358 z"
       id="path882"
       inkscape:connector-curvature="0"
       sodipodi:nodetypes="cccc" />
    <path
       style="display:inline;fill:none;stroke:#000000;stroke-width:3;stroke-linecap:round;stroke-linejoin:miter;stroke-miterlimit:4;stroke-dasharray:none;stroke-opacity:1"
       d="m 121.48366,177.30336 c -5.23523,39.2589 -29.570062,72.29209 -74.791919,106.0838"
       id="path880-5"
       inkscape:connector-curvature="0"
       sodipodi:nodetypes="cc" />
    <path
       style="display:inline;fill:none;stroke:#000000;stroke-width:3;stroke-linecap:round;stroke-linejoin:miter;stroke-miterlimit:4;stroke-dasharray:none;stroke-opacity:1"
       d="m 123.2823,203.19695 c -2.40041,22.06098 -15.20696,64.1656 -45.498766,84.16118"
       id="path880-5-2"
       inkscape:connector-curvature="0"
       sodipodi:nodetypes="cc" />
    <path
       style="display:inline;fill:none;stroke:#000000;stroke-width:3;stroke-linecap:round;stroke-linejoin:miter;stroke-miterlimit:4;stroke-dasharray:none;stroke-opacity:1"
       d="m 105.04556,257.81506 c 9.31685,23.76187 26.00081,30.28289 45.41288,30.24573"
       id="path880-5-2-1"
       inkscape:connector-curvature="0"
       sodipodi:nodetypes="cc" />
    <path
       style="display:inline;fill:none;stroke:#000000;stroke-width:3;stroke-linecap:round;stroke-linejoin:miter;stroke-miterlimit:4;stroke-dasharray:none;stroke-opacity:1"
       d="m 114.57083,238.09789 c 1.37935,20.73806 9.86096,42.44054 35.88761,49.9629"
       id="path880-5-2-1-5"
       inkscape:connector-curvature="0"
       sodipodi:nodetypes="cc" />
    <path
       style="fill:#ffffff;fill-opacity:1;stroke:#000000;stroke-width:0.26458332px;stroke-linecap:butt;stroke-linejoin:miter;stroke-opacity:1"
       d="m 94.950668,124.79347 c -2.56034,2.57294 -5.18223,5.12125 -7.134297,7.9375 -1.221277,10.20553 -2.751824,11.74379 -2.55134,19.891 0.137694,4.18439 8.594917,7.81373 12.436617,10.20813 3.275792,-3.14159 7.453452,-8.69565 7.469202,-11.29343 0.1183,-6.25364 -1.93529,-9.27207 -2.61341,-18.42772 -1.58935,-2.77183 -4.876442,-5.63815 -7.606772,-8.31548 z"
       id="path955"
       inkscape:connector-curvature="0"
       sodipodi:nodetypes="ccccccc" />
    <path
       style="fill:#000000;fill-opacity:1;stroke:#000000;stroke-width:0.26458332px;stroke-linecap:butt;stroke-linejoin:miter;stroke-opacity:1"
       d="m 92.588318,187.25404 c -5.791394,-3.92908 -12.129231,-9.5413 -15.308036,-15.40254 1.985944,5.91504 9.000393,15.22868 11.433778,18.80432 z"
       id="path984"
       inkscape:connector-curvature="0"
       sodipodi:nodetypes="cccc" />
  </g>
</svg>
