<?xml version="1.0" encoding="UTF-8" standalone="no"?>
<!-- Created with Inkscape (http://www.inkscape.org/) -->

<svg
   xmlns:dc="http://purl.org/dc/elements/1.1/"
   xmlns:cc="http://creativecommons.org/ns#"
   xmlns:rdf="http://www.w3.org/1999/02/22-rdf-syntax-ns#"
   xmlns:svg="http://www.w3.org/2000/svg"
   xmlns="http://www.w3.org/2000/svg"
   xmlns:sodipodi="http://sodipodi.sourceforge.net/DTD/sodipodi-0.dtd"
   xmlns:inkscape="http://www.inkscape.org/namespaces/inkscape"
   width="190mm"
   height="190mm"
   viewBox="0 0 190 190"
   version="1.1"
   id="svg8"
   inkscape:version="0.92.4 (5da689c313, 2019-01-14)"
   sodipodi:docname="ThoughtBubbleLeftKnight.svg">
  <defs
     id="defs2" />
  <sodipodi:namedview
     id="base"
     pagecolor="#ffffff"
     bordercolor="#666666"
     borderopacity="1.0"
     inkscape:pageopacity="0.0"
     inkscape:pageshadow="2"
     inkscape:zoom="0.70710678"
     inkscape:cx="255.73224"
     inkscape:cy="422.44356"
     inkscape:document-units="mm"
     inkscape:current-layer="layer1"
     showgrid="false"
     inkscape:window-width="1920"
     inkscape:window-height="1009"
     inkscape:window-x="-8"
     inkscape:window-y="303"
     inkscape:window-maximized="1" />
  <metadata
     id="metadata5">
    <rdf:RDF>
      <cc:Work
         rdf:about="">
        <dc:format>image/svg+xml</dc:format>
        <dc:type
           rdf:resource="http://purl.org/dc/dcmitype/StillImage" />
        <dc:title></dc:title>
      </cc:Work>
    </rdf:RDF>
  </metadata>
  <g
     inkscape:groupmode="layer"
     id="layer2"
     inkscape:label="Speech"
     style="display:none">
    <path
       style="display:inline;fill:#ffffff;fill-opacity:1;stroke:#000000;stroke-width:1;stroke-linecap:butt;stroke-linejoin:miter;stroke-miterlimit:4;stroke-dasharray:none;stroke-opacity:1"
       d="M 163.38224,136.2068 134.27807,93.344301 C 135.64448,80.722731 138.38158,8.8880489 72.630151,7.354716 -7.970939,6.167106 -2.8563787,142.93128 66.544731,145.73179 c 11.37496,0.9296 38.701519,0.4045 60.854169,-22.75416 z"
       id="path6137"
       inkscape:connector-curvature="0"
       sodipodi:nodetypes="cccccc" />
  </g>
  <g
     inkscape:groupmode="layer"
     id="layer1"
     inkscape:label="Thought"
     style="display:inline">
    <path
       style="fill:#ffffff;fill-opacity:1;stroke:#000000;stroke-width:1;stroke-linecap:butt;stroke-linejoin:miter;stroke-miterlimit:4;stroke-dasharray:none;stroke-opacity:1"
       d="m 164.92885,121.60521 c 0.12065,-1.05833 3.73841,-4.43177 -0.79375,-5.09323 -0.83784,-4.20747 -5.97517,-3.66172 -7.67291,0.0662 -7.58473,-2.99861 -10.27465,3.10886 -6.48229,5.68854 0,0 -3.0708,3.049 0.99218,7.14375 1.71192,1.69853 7.79706,4.82792 8.46667,-0.79375 0.84661,2.55129 4.45884,1.55387 7.9375,-1.19062 1.18648,-1.65365 0.0286,-6.21771 -2.4474,-5.82084 z"
       id="path6103"
       inkscape:connector-curvature="0"
       sodipodi:nodetypes="cccccccc" />
    <path
       style="fill:#ffffff;fill-opacity:1;stroke:#000000;stroke-width:0.99999994;stroke-linecap:butt;stroke-linejoin:miter;stroke-miterlimit:4;stroke-dasharray:none;stroke-opacity:1"
       d="m 160.95559,92.193868 c 0.20951,-1.840545 6.49182,-7.707303 -1.37836,-8.85765 -1.45493,-7.317215 -10.37599,-6.3681 -13.32415,0.115129 -13.171,-5.214884 -17.8421,5.406626 -11.25661,9.892954 0,0 -5.33249,5.302526 1.72295,12.423719 2.97277,2.95392 13.53973,8.39625 14.70251,-1.38041 1.47015,4.43696 7.74286,2.70234 13.78361,-2.07061 2.06034,-2.875873 0.0497,-10.813243 -4.24995,-10.123045 z"
       id="path6103-8"
       inkscape:connector-curvature="0"
       sodipodi:nodetypes="cccccccc" />
    <path
       style="fill:#ffffff;fill-opacity:1;stroke:#000000;stroke-width:1;stroke-linecap:butt;stroke-linejoin:miter;stroke-miterlimit:4;stroke-dasharray:none;stroke-opacity:1"
       d="M 113.61729,66.189723 C 114.29815,58.107102 134.71424,32.343657 109.13792,27.291991 104.40971,-4.8410339 75.418254,-0.67306373 65.837394,27.797572 23.034554,4.8967821 7.854514,51.540381 29.255914,71.241767 c 0,0 -17.3294,23.285663 5.5992,54.557873 9.66085,12.97193 63.315683,38.98821 67.094486,-3.9453 14.83181,9.695 22.19895,1.12329 25.47907,-11.2096 6.69565,-12.6292 0.16161,-47.485589 -13.81138,-44.454634 z"
       id="path6103-8-6"
       inkscape:connector-curvature="0"
       sodipodi:nodetypes="ccccccccc" />
    <path
       style="display:inline;fill:#282828;fill-opacity:1;stroke:none;stroke-width:0.26458332px;stroke-linecap:butt;stroke-linejoin:miter;stroke-opacity:1"
       d="M 89.358183,126.11054 H 57.608185 c -1.413738,-0.0296 -1.656481,-1.03953 -1.190625,-2.77813 6.693364,-29.987064 17.239277,-29.382353 18.506247,-46.698965 -0.635793,2.770201 -3.855659,3.545229 -5.820833,2.11667 -7.438137,4.72477 -4.939356,6.537851 -9.525,3.307291 -0.766221,-0.65043 -1.097563,-5.99722 -0.661459,-6.61458 11.995862,-14.480601 4.16175,-13.939421 13.716222,-24.833043 0.572367,-1.899228 -0.03989,-3.928118 -1.594998,-5.296387 2.174239,0.458413 6.922678,2.383088 6.399609,5.126297 20.549636,8.598782 5.923694,33.373552 7.276046,56.356247 1.390729,7.51873 3.090508,12.76516 5.306248,16.80105 0.832382,1.49316 -0.114649,2.52589 -0.661459,2.51355 z"
       id="path3130"
       inkscape:connector-curvature="0"
       sodipodi:nodetypes="ccccccccccccc" />
  </g>
</svg>
