<?xml version="1.0" encoding="UTF-8" standalone="no"?>
<!-- Created with Inkscape (http://www.inkscape.org/) -->

<svg
   xmlns:dc="http://purl.org/dc/elements/1.1/"
   xmlns:cc="http://creativecommons.org/ns#"
   xmlns:rdf="http://www.w3.org/1999/02/22-rdf-syntax-ns#"
   xmlns:svg="http://www.w3.org/2000/svg"
   xmlns="http://www.w3.org/2000/svg"
   xmlns:sodipodi="http://sodipodi.sourceforge.net/DTD/sodipodi-0.dtd"
   xmlns:inkscape="http://www.inkscape.org/namespaces/inkscape"
   width="190mm"
   height="190mm"
   viewBox="0 0 190 190"
   version="1.1"
   id="svg8"
   inkscape:version="0.92.4 (5da689c313, 2019-01-14)"
   sodipodi:docname="ThoughtBubbleLeftBomb.svg">
  <defs
     id="defs2" />
  <sodipodi:namedview
     id="base"
     pagecolor="#ffffff"
     bordercolor="#666666"
     borderopacity="1.0"
     inkscape:pageopacity="0.0"
     inkscape:pageshadow="2"
     inkscape:zoom="0.70710678"
     inkscape:cx="255.73224"
     inkscape:cy="422.44356"
     inkscape:document-units="mm"
     inkscape:current-layer="layer1"
     showgrid="false"
     inkscape:window-width="1920"
     inkscape:window-height="1009"
     inkscape:window-x="-8"
     inkscape:window-y="303"
     inkscape:window-maximized="1" />
  <metadata
     id="metadata5">
    <rdf:RDF>
      <cc:Work
         rdf:about="">
        <dc:format>image/svg+xml</dc:format>
        <dc:type
           rdf:resource="http://purl.org/dc/dcmitype/StillImage" />
        <dc:title></dc:title>
      </cc:Work>
    </rdf:RDF>
  </metadata>
  <g
     inkscape:groupmode="layer"
     id="layer2"
     inkscape:label="Speech"
     style="display:none">
    <path
       style="display:inline;fill:#ffffff;fill-opacity:1;stroke:#000000;stroke-width:1;stroke-linecap:butt;stroke-linejoin:miter;stroke-miterlimit:4;stroke-dasharray:none;stroke-opacity:1"
       d="M 163.38224,136.2068 134.27807,93.344301 C 135.64448,80.722731 138.38158,8.8880489 72.630151,7.354716 -7.970939,6.167106 -2.8563787,142.93128 66.544731,145.73179 c 11.37496,0.9296 38.701519,0.4045 60.854169,-22.75416 z"
       id="path6137"
       inkscape:connector-curvature="0"
       sodipodi:nodetypes="cccccc" />
  </g>
  <g
     inkscape:groupmode="layer"
     id="layer1"
     inkscape:label="Thought"
     style="display:inline">
    <path
       style="fill:#ffffff;fill-opacity:1;stroke:#000000;stroke-width:1;stroke-linecap:butt;stroke-linejoin:miter;stroke-miterlimit:4;stroke-dasharray:none;stroke-opacity:1"
       d="m 164.92885,121.60521 c 0.12065,-1.05833 3.73841,-4.43177 -0.79375,-5.09323 -0.83784,-4.20747 -5.97517,-3.66172 -7.67291,0.0662 -7.58473,-2.99861 -10.27465,3.10886 -6.48229,5.68854 0,0 -3.0708,3.049 0.99218,7.14375 1.71192,1.69853 7.79706,4.82792 8.46667,-0.79375 0.84661,2.55129 4.45884,1.55387 7.9375,-1.19062 1.18648,-1.65365 0.0286,-6.21771 -2.4474,-5.82084 z"
       id="path6103"
       inkscape:connector-curvature="0"
       sodipodi:nodetypes="cccccccc" />
    <path
       style="fill:#ffffff;fill-opacity:1;stroke:#000000;stroke-width:0.99999994;stroke-linecap:butt;stroke-linejoin:miter;stroke-miterlimit:4;stroke-dasharray:none;stroke-opacity:1"
       d="m 160.95559,92.193868 c 0.20951,-1.840545 6.49182,-7.707303 -1.37836,-8.85765 -1.45493,-7.317215 -10.37599,-6.3681 -13.32415,0.115129 -13.171,-5.214884 -17.8421,5.406626 -11.25661,9.892954 0,0 -5.33249,5.302526 1.72295,12.423719 2.97277,2.95392 13.53973,8.39625 14.70251,-1.38041 1.47015,4.43696 7.74286,2.70234 13.78361,-2.07061 2.06034,-2.875873 0.0497,-10.813243 -4.24995,-10.123045 z"
       id="path6103-8"
       inkscape:connector-curvature="0"
       sodipodi:nodetypes="cccccccc" />
    <path
       style="fill:#ffffff;fill-opacity:1;stroke:#000000;stroke-width:1;stroke-linecap:butt;stroke-linejoin:miter;stroke-miterlimit:4;stroke-dasharray:none;stroke-opacity:1"
       d="M 113.61729,66.189723 C 114.29815,58.107102 134.71424,32.343657 109.13792,27.291991 104.40971,-4.8410339 75.418254,-0.67306373 65.837394,27.797572 23.034554,4.8967821 7.854514,51.540381 29.255914,71.241767 c 0,0 -17.3294,23.285663 5.5992,54.557873 9.66085,12.97193 63.315683,38.98821 67.094486,-3.9453 14.83181,9.695 22.19895,1.12329 25.47907,-11.2096 6.69565,-12.6292 0.16161,-47.485589 -13.81138,-44.454634 z"
       id="path6103-8-6"
       inkscape:connector-curvature="0"
       sodipodi:nodetypes="ccccccccc" />
    <g
       id="g7951"
       transform="translate(0,1.122532)">
      <path
         sodipodi:nodetypes="ccccc"
         inkscape:connector-curvature="0"
         id="path3078"
         d="M 75.56087,124.18747 H 54.856842 c 0.926958,-0.48401 0.839416,-0.98348 -0.009,-1.52136 C 67.571164,121.24669 73.10577,92.684957 73.64667,84.348157 l 1.77247,-0.0468"
         style="display:inline;fill:#282828;fill-opacity:1;stroke:none;stroke-width:0.26458332px;stroke-linecap:butt;stroke-linejoin:miter;stroke-opacity:1" />
      <circle
         r="20.112032"
         cy="67.261131"
         cx="75.560867"
         id="path3080"
         style="display:inline;opacity:1;fill:#282828;fill-opacity:1;fill-rule:nonzero;stroke:none;stroke-width:0.26499999;stroke-linecap:round;stroke-linejoin:bevel;stroke-miterlimit:4;stroke-dasharray:none;stroke-opacity:1;paint-order:fill markers stroke" />
      <path
         sodipodi:nodetypes="ccccc"
         inkscape:connector-curvature="0"
         id="path3082"
         d="m 58.091932,51.475985 3.739018,4.97779 12.9983,-7.11992 -4.984444,-6.04415 z"
         style="display:inline;fill:#282828;fill-opacity:1;stroke:none;stroke-width:0.26458332px;stroke-linecap:butt;stroke-linejoin:miter;stroke-opacity:1" />
      <path
         sodipodi:nodetypes="cc"
         inkscape:connector-curvature="0"
         id="path3084"
         d="M 65.218492,49.124075 C 58.978327,30.813615 59.282557,51.475985 52.8789,45.200481"
         style="display:inline;fill:none;fill-opacity:1;stroke:#282828;stroke-width:3;stroke-linecap:round;stroke-linejoin:miter;stroke-miterlimit:4;stroke-dasharray:none;stroke-opacity:1" />
      <path
         sodipodi:nodetypes="ccccc"
         inkscape:connector-curvature="0"
         id="path3078-8"
         d="M 74.10566,124.18747 H 96.2649 c -0.92696,-0.48401 -0.83942,-0.98348 0.009,-1.52135 C 83.55058,121.24669 78.01597,92.684967 77.47507,84.348164 l -3.16152,-1.766588"
         style="display:inline;fill:#282828;fill-opacity:1;stroke:none;stroke-width:0.26458332px;stroke-linecap:butt;stroke-linejoin:miter;stroke-opacity:1" />
    </g>
  </g>
</svg>
